<svg width="18" height="24" viewBox="0 0 18 24" fill="none" xmlns="http://www.w3.org/2000/svg">
<path d="M11.25 6.10352e-05C6.13533 2.94703 6.74998 11.2501 6.74998 11.2501C6.74998 11.2501 4.50001 10.5 4.50001 7.12508C1.81561 8.68164 0 11.6735 0 15.0001C0 19.9706 4.02944 24.0001 9.00001 24.0001C13.9706 24.0001 18 19.9706 18 15.0001C18 7.68757 11.25 6.18755 11.25 6.10352e-05ZM9.79056 20.899C7.98204 21.3499 6.15032 20.2493 5.69933 18.4407C5.24842 16.6322 6.34897 14.8003 8.15759 14.3494C12.5239 13.2608 13.0711 10.8054 13.0711 10.8054C13.0711 10.8054 15.2485 19.5381 9.79056 20.899Z" fill="#FF6D00"/>
</svg>
