<svg width="26" height="26" viewBox="0 0 26 26" fill="none" xmlns="http://www.w3.org/2000/svg">
<path d="M19.1082 0.860442C15.0742 0.0465191 10.9257 0.0465194 6.89167 0.860442C4.36509 1.37022 2.33178 3.30484 1.63424 5.86272L1.57488 6.08041C0.752711 9.09528 0.752711 12.2859 1.57488 15.3008L1.63424 15.5184C2.33178 18.0763 4.36509 20.0109 6.89167 20.5207C8.58895 20.8632 10.3065 21.0615 12.0273 21.1158V23.7421H9.75775C9.22057 23.7421 8.7851 24.1916 8.7851 24.746C8.7851 25.3005 9.22057 25.75 9.75775 25.75H16.2421C16.7793 25.75 17.2147 25.3005 17.2147 24.746C17.2147 24.1916 16.7793 23.7421 16.2421 23.7421H13.9726V21.1158C15.6933 21.0615 17.4109 20.8632 19.1082 20.5207C21.6348 20.0109 23.6681 18.0763 24.3656 15.5184L24.425 15.3007C25.2471 12.2859 25.2471 9.09528 24.425 6.08042L24.3656 5.86272C23.6681 3.30484 21.6348 1.37022 19.1082 0.860442Z" fill="white"/>
</svg>
